<svg width="300" height="30" viewBox="0 0 300 30" fill="none" xmlns="http://www.w3.org/2000/svg">
<path d="M10.525 24.125C9.20833 24.125 7.99167 23.9083 6.875 23.475C5.75833 23.025 4.78333 22.4 3.95 21.6C3.13333 20.8 2.5 19.8667 2.05 18.8C1.6 17.7167 1.375 16.5333 1.375 15.25C1.375 13.9667 1.6 12.7917 2.05 11.725C2.5 10.6417 3.14167 9.7 3.975 8.9C4.80833 8.1 5.775 7.48333 6.875 7.05C7.99167 6.6 9.21667 6.375 10.55 6.375C11.8167 6.375 12.9917 6.575 14.075 6.975C15.1583 7.375 16.0833 7.975 16.85 8.775L16.05 9.625C15.2833 8.875 14.4417 8.34167 13.525 8.025C12.625 7.70833 11.6417 7.55 10.575 7.55C9.44167 7.55 8.39167 7.74167 7.425 8.125C6.45833 8.50833 5.61667 9.05 4.9 9.75C4.18333 10.45 3.625 11.2667 3.225 12.2C2.84167 13.1333 2.65 14.15 2.65 15.25C2.65 16.35 2.84167 17.3667 3.225 18.3C3.625 19.2333 4.18333 20.05 4.9 20.75C5.61667 21.45 6.45833 21.9917 7.425 22.375C8.39167 22.7583 9.44167 22.95 10.575 22.95C11.6083 22.95 12.5833 22.7917 13.5 22.475C14.4333 22.1583 15.2833 21.6333 16.05 20.9L16.775 21.875C15.9917 22.625 15.05 23.1917 13.95 23.575C12.8667 23.9417 11.725 24.125 10.525 24.125ZM15.55 21.75V15.325H16.775V21.875L15.55 21.75ZM23.5109 14.55H32.9859V15.675H23.5109V14.55ZM23.6609 22.85H34.4609V24H22.3859V6.5H34.0859V7.65H23.6609V22.85ZM39.1096 24V6.5H40.1846L52.6596 22.425H52.0846V6.5H53.3596V24H52.3096L39.8096 8.075H40.3846V24H39.1096ZM62.8209 24V7.65H56.5209V6.5H70.3959V7.65H64.0959V24H62.8209ZM73.5578 24V6.5H74.8328V22.85H84.9078V24H73.5578ZM89.3068 14.55H98.7818V15.675H89.3068V14.55ZM89.4568 22.85H100.257V24H88.1818V6.5H99.8818V7.65H89.4568V22.85ZM104.905 24V6.5H105.98L114.105 20.525H113.53L121.63 6.5H122.68L122.705 24H121.455L121.43 8.425H121.78L114.105 21.675H113.48L105.78 8.425H106.155V24H104.905ZM129.932 14.55H139.407V15.675H129.932V14.55ZM130.082 22.85H140.882V24H128.807V6.5H140.507V7.65H130.082V22.85ZM145.53 24V6.5H146.605L159.08 22.425H158.505V6.5H159.78V24H158.73L146.23 8.075H146.805V24H145.53ZM164.292 10.95L165.267 6.725L165.392 7.45C165.075 7.45 164.808 7.35 164.592 7.15C164.392 6.95 164.292 6.7 164.292 6.4C164.292 6.1 164.392 5.85 164.592 5.65C164.808 5.45 165.058 5.35 165.342 5.35C165.658 5.35 165.908 5.45833 166.092 5.675C166.292 5.875 166.392 6.11667 166.392 6.4C166.392 6.51667 166.383 6.63333 166.367 6.75C166.35 6.86667 166.325 6.98333 166.292 7.1C166.258 7.21667 166.217 7.36667 166.167 7.55L165.192 10.95H164.292ZM175.741 24.125C174.441 24.125 173.207 23.9083 172.041 23.475C170.891 23.025 169.999 22.45 169.366 21.75L169.941 20.8C170.541 21.4167 171.357 21.9417 172.391 22.375C173.441 22.7917 174.549 23 175.716 23C176.882 23 177.832 22.85 178.566 22.55C179.316 22.2333 179.866 21.8167 180.216 21.3C180.582 20.7833 180.766 20.2083 180.766 19.575C180.766 18.825 180.566 18.225 180.166 17.775C179.766 17.325 179.241 16.9667 178.591 16.7C177.941 16.4333 177.232 16.2083 176.466 16.025C175.699 15.8417 174.924 15.65 174.141 15.45C173.357 15.2333 172.641 14.9583 171.991 14.625C171.341 14.2917 170.816 13.8417 170.416 13.275C170.032 12.6917 169.841 11.9417 169.841 11.025C169.841 10.1917 170.057 9.425 170.491 8.725C170.924 8.025 171.599 7.45833 172.516 7.025C173.432 6.59167 174.607 6.375 176.041 6.375C177.007 6.375 177.957 6.51667 178.891 6.8C179.841 7.08333 180.649 7.46667 181.316 7.95L180.841 8.975C180.107 8.475 179.316 8.10833 178.466 7.875C177.632 7.625 176.824 7.5 176.041 7.5C174.924 7.5 173.999 7.65833 173.266 7.975C172.532 8.29167 171.991 8.71667 171.641 9.25C171.291 9.76667 171.116 10.35 171.116 11C171.116 11.75 171.307 12.35 171.691 12.8C172.091 13.25 172.616 13.6083 173.266 13.875C173.916 14.1417 174.632 14.3667 175.416 14.55C176.199 14.7333 176.974 14.9333 177.741 15.15C178.507 15.35 179.216 15.6167 179.866 15.95C180.516 16.2833 181.041 16.7333 181.441 17.3C181.841 17.8667 182.041 18.6 182.041 19.5C182.041 20.3167 181.816 21.0833 181.366 21.8C180.916 22.5 180.224 23.0667 179.291 23.5C178.374 23.9167 177.191 24.125 175.741 24.125ZM200.196 24.125C198.896 24.125 197.688 23.9083 196.571 23.475C195.471 23.025 194.513 22.4 193.696 21.6C192.879 20.8 192.246 19.8667 191.796 18.8C191.346 17.7167 191.121 16.5333 191.121 15.25C191.121 13.9667 191.346 12.7917 191.796 11.725C192.246 10.6417 192.879 9.7 193.696 8.9C194.529 8.1 195.496 7.48333 196.596 7.05C197.696 6.6 198.896 6.375 200.196 6.375C201.429 6.375 202.579 6.575 203.646 6.975C204.729 7.375 205.654 7.98333 206.421 8.8L205.621 9.625C204.871 8.89167 204.038 8.36667 203.121 8.05C202.221 7.71667 201.263 7.55 200.246 7.55C199.129 7.55 198.088 7.74167 197.121 8.125C196.171 8.50833 195.338 9.05 194.621 9.75C193.921 10.45 193.371 11.2667 192.971 12.2C192.588 13.1333 192.396 14.15 192.396 15.25C192.396 16.35 192.588 17.3667 192.971 18.3C193.371 19.2333 193.921 20.05 194.621 20.75C195.338 21.45 196.171 21.9917 197.121 22.375C198.088 22.7583 199.129 22.95 200.246 22.95C201.263 22.95 202.221 22.7917 203.121 22.475C204.038 22.1417 204.871 21.6 205.621 20.85L206.421 21.675C205.654 22.4917 204.729 23.1083 203.646 23.525C202.579 23.925 201.429 24.125 200.196 24.125ZM210.692 24V6.5H216.967C218.433 6.5 219.692 6.73333 220.742 7.2C221.792 7.66667 222.6 8.34167 223.167 9.225C223.733 10.0917 224.017 11.15 224.017 12.4C224.017 13.6167 223.733 14.6667 223.167 15.55C222.6 16.4167 221.792 17.0917 220.742 17.575C219.692 18.0417 218.433 18.275 216.967 18.275H211.392L211.967 17.675V24H210.692ZM222.842 24L218.292 17.65H219.742L224.292 24H222.842ZM211.967 17.75L211.392 17.15H216.967C218.85 17.15 220.275 16.7333 221.242 15.9C222.225 15.0667 222.717 13.9 222.717 12.4C222.717 10.8833 222.225 9.71667 221.242 8.9C220.275 8.06667 218.85 7.65 216.967 7.65H211.392L211.967 7.025V17.75ZM228.685 24V6.5H229.96V24H228.685ZM236.058 24V6.5H243.358C245.241 6.5 246.716 6.88333 247.783 7.65C248.849 8.41667 249.383 9.525 249.383 10.975C249.383 11.925 249.158 12.725 248.708 13.375C248.258 14.025 247.633 14.5167 246.833 14.85C246.049 15.1667 245.166 15.325 244.183 15.325L244.633 14.825C245.833 14.825 246.858 15 247.708 15.35C248.558 15.7 249.199 16.2083 249.633 16.875C250.083 17.5417 250.308 18.375 250.308 19.375C250.308 20.8417 249.774 21.9833 248.708 22.8C247.641 23.6 246.024 24 243.858 24H236.058ZM237.333 22.9H243.858C245.541 22.9 246.824 22.6167 247.708 22.05C248.591 21.4667 249.033 20.5417 249.033 19.275C249.033 18.025 248.591 17.1167 247.708 16.55C246.824 15.9667 245.541 15.675 243.858 15.675H237.183V14.575H243.308C244.824 14.575 245.999 14.2833 246.833 13.7C247.666 13.1167 248.083 12.2417 248.083 11.075C248.083 9.925 247.666 9.05833 246.833 8.475C245.999 7.89167 244.824 7.6 243.308 7.6H237.333V22.9Z" fill="white"/>
<path fill-rule="evenodd" clip-rule="evenodd" d="M272.569 12.5431C272.57 12.5051 272.571 12.4668 272.571 12.4283C272.571 11.1659 271.548 10.1426 270.286 10.1426C269.023 10.1426 268 11.1659 268 12.4283C268 12.4668 268.001 12.5051 268.003 12.5431H268V22.7141V22.7145V23.8569C268 24.4881 268.512 24.9998 269.143 24.9998C269.774 24.9998 270.286 24.4881 270.286 23.8569V22.7145H272.571V12.5431H272.569ZM300 12.4285C300 12.4669 299.999 12.5051 299.997 12.5431H300V16.9998H300V22.7141H300V23.8569C300 24.4881 299.488 24.9998 298.857 24.9998C298.226 24.9998 297.714 24.4881 297.714 23.8569V22.7145H295.428V22.7141H272.571V16.9998H295.428V12.5431H295.431C295.429 12.5051 295.428 12.4669 295.428 12.4285C295.428 11.1661 296.452 10.1428 297.714 10.1428C298.977 10.1428 300 11.1661 300 12.4285Z" fill="white"/>
<path fill-rule="evenodd" clip-rule="evenodd" d="M270.288 4.54267H270.286V7.59511C270.644 7.46878 271.028 7.40004 271.429 7.40004C272.052 7.40004 272.637 7.56633 273.14 7.85695H273.6V7.85708H273.14C274.136 8.43163 274.816 9.49201 274.856 10.7142H293.145C293.185 9.49201 293.865 8.43163 294.86 7.85708H294.298L294.322 7.85695H294.861C295.364 7.56633 295.949 7.40004 296.572 7.40004C296.972 7.40004 297.357 7.4688 297.715 7.59516V4.54267H297.713C297.714 4.50479 297.715 4.46675 297.715 4.42857C297.715 2.53502 296.18 1 294.286 1H294.286H273.715H273.6V1.00187C271.76 1.0622 270.286 2.57329 270.286 4.42857C270.286 4.46675 270.287 4.50479 270.288 4.54267ZM293.143 10.7144V10.8015L293.143 10.8286L293.143 10.8557V14.7144H274.858V10.7144H293.143Z" fill="white"/>
</svg>
